<?xml version="1.0" encoding="utf-8"?>
<!-- Generator: Adobe Illustrator 24.1.0, SVG Export Plug-In . SVG Version: 6.00 Build 0)  -->
<svg version="1.1" id="Layer_1" xmlns="http://www.w3.org/2000/svg" xmlns:xlink="http://www.w3.org/1999/xlink" x="0px" y="0px"
	 viewBox="0 0 665.1 424" style="enable-background:new 0 0 665.1 424;" xml:space="preserve">
<style type="text/css">
	.st0{fill-rule:evenodd;clip-rule:evenodd;fill:#455A64;}
	.st1{fill-rule:evenodd;clip-rule:evenodd;fill:#4FC3F7;}
	.st2{fill-rule:evenodd;clip-rule:evenodd;fill:#733D19;}
	.st3{fill-rule:evenodd;clip-rule:evenodd;fill:#FFAAAA;}
	.st4{fill-rule:evenodd;clip-rule:evenodd;fill:#696AB1;}
	.st5{fill-rule:evenodd;clip-rule:evenodd;fill:#CCCCCC;}
	.st6{fill-rule:evenodd;clip-rule:evenodd;fill:#FFFFFF;}
	.st7{fill-rule:evenodd;clip-rule:evenodd;fill:#29B6F6;}
	.st8{fill-rule:evenodd;clip-rule:evenodd;fill:#B0BEC5;}
	.st9{fill-rule:evenodd;clip-rule:evenodd;fill:#4DB6AC;}
	.st10{fill-rule:evenodd;clip-rule:evenodd;fill:#00897B;}
	.st11{fill-rule:evenodd;clip-rule:evenodd;fill:#B3E5FC;}
	.st12{fill-rule:evenodd;clip-rule:evenodd;fill:#039BE5;}
	.st13{fill-rule:evenodd;clip-rule:evenodd;fill:#1976D2;}
	.st14{fill-rule:evenodd;clip-rule:evenodd;fill:#FBD9A5;}
	.st15{fill-rule:evenodd;clip-rule:evenodd;fill:#E3BC81;}
	.st16{fill-rule:evenodd;clip-rule:evenodd;fill:#FFE0B2;}
	.st17{fill-rule:evenodd;clip-rule:evenodd;fill:#393636;}
	.st18{fill-rule:evenodd;clip-rule:evenodd;fill:#03A9F4;}
	.st19{fill-rule:evenodd;clip-rule:evenodd;fill:#0288D1;}
	.st20{fill-rule:evenodd;clip-rule:evenodd;fill:#323232;}
	.st21{fill-rule:evenodd;clip-rule:evenodd;fill:#333333;}
	.st22{fill:none;stroke:#000000;stroke-width:0.173;stroke-miterlimit:3.2;}
	.st23{fill-rule:evenodd;clip-rule:evenodd;fill:#FFD596;}
	.st24{fill-rule:evenodd;clip-rule:evenodd;fill:#F44336;fill-opacity:0.9948;}
	.st25{fill-rule:evenodd;clip-rule:evenodd;fill:#F9F9F9;}
	.st26{fill-rule:evenodd;clip-rule:evenodd;fill:#CE93D8;}
	.st27{fill:#FFFFFF;}
	.st28{font-family:'ArialMT';}
	.st29{font-size:15.641px;}
</style>
<g transform="translate(70 -293.08)">
	<path class="st0" d="M-36.2,403.9H67.7c2.9,0,5.3,5,5.3,11.2v182.3c0,6.2-2.4,11.2-5.3,11.2H-36.2c-2.9,0-5.3-5-5.3-11.2V415.2
		C-41.5,409-39.1,403.9-36.2,403.9z"/>
	<rect x="-38" y="420.7" class="st1" width="107.7" height="173.4"/>
	<path class="st1" d="M-5,409L-5,409c1.7,0,3.1,1.3,3.1,3v0c0,1.7-1.3,3-3,3H-5c-1.7,0-3-1.3-3-3v0C-8,410.3-6.7,409-5,409z"/>
	<path class="st1" d="M4.1,410.7h31.8c0.4,0,0.8,0.4,0.8,0.8v2.2c0,0.4-0.4,0.8-0.8,0.8H4.1c-0.4,0-0.8-0.4-0.8-0.8v-2.2
		C3.3,411,3.6,410.7,4.1,410.7z"/>
	<path class="st2" d="M131.1,403.9h89.2c7,0,12.6,5.6,12.6,12.6v179.6c0,7-5.6,12.6-12.6,12.6h-89.2c-7,0-12.6-5.6-12.6-12.6V416.5
		C118.5,409.6,124.2,403.9,131.1,403.9z"/>
	<rect x="122" y="420.7" class="st3" width="107.7" height="167.4"/>
	<path class="st3" d="M159.8,410.7h31.8c0.4,0,0.8,0.4,0.8,0.8v2.2c0,0.4-0.4,0.8-0.8,0.8h-31.8c-0.4,0-0.8-0.4-0.8-0.8v-2.2
		C159,411.1,159.4,410.7,159.8,410.7z"/>
	<path class="st4" d="M292.5,403.9h95.6c5.2,0,9.4,4.2,9.4,9.4v186c0,5.2-4.2,9.4-9.4,9.4h-95.6c-5.2,0-9.4-4.2-9.4-9.4v-186
		C283.1,408.1,287.3,403.9,292.5,403.9z"/>
	<rect x="286.6" y="422.7" class="st5" width="107.7" height="163.7"/>
	<path class="st6" d="M340.1,457.8c-14,0.2-22.4,16.4-19.1,28.9c-0.1,11.3-1.9,25.3,7.4,34c9,8.5,24,3.4,29.6-6.6
		c3.7-5.3,2.6-11.8,2-17.7c0-11.5,1.9-25.4-7.2-34.2C349.3,459.1,344.6,457.7,340.1,457.8L340.1,457.8z"/>
	<path class="st7" d="M339.6,459.4c-13,0.6-20.2,16-17,27.5c-0.2,11.2-2.1,25.3,7.6,33.4c12.4,9.6,32.1-4.6,28.4-19.3
		c-1.2-11.7,2.7-25.5-5.3-35.8C350.2,461,344.6,459.2,339.6,459.4L339.6,459.4z"/>
	<path class="st6" d="M340.3,461.2c-12.3,0.1-18.8,14.8-15.7,25.4c0,10.7-2.4,24.2,6.9,32.1c11.5,8.9,29.8-5.2,25.1-18.6
		c-0.5-11.6,3-25.6-5.7-35.2C347.8,462.5,344,461.1,340.3,461.2L340.3,461.2z"/>
	<path class="st7" d="M340.3,463.1c-11.2,0.1-16.6,13.7-13.9,23.3c0.3,10.2-2.7,23.1,6.1,30.9c10.4,7.9,26.7-5,22.1-17
		c-0.5-11.1,3.1-24.4-4.9-33.8C347,464.2,343.6,463,340.3,463.1L340.3,463.1z"/>
	<path class="st6" d="M340.3,464.9c-10.4,0.1-14.6,13.2-11.9,21.7c0.1,9.7-2.9,22.4,5.7,29.5c9.5,5.9,22.8-5.4,18.5-15.8
		c-0.5-10.8,3.2-23.3-4.2-32.6C346.2,465.9,343.2,464.8,340.3,464.9L340.3,464.9z"/>
	<path class="st7" d="M340.3,466.8c-9,0.1-12,11-10.1,18.3c0.8,9.5-3.3,21.2,4.1,29c7.5,5.8,19.7-3,16.5-12
		c-0.7-10.4,2.5-21.9-2.4-31.7C346.4,468.1,343.3,466.7,340.3,466.8L340.3,466.8z"/>
	<path class="st6" d="M340.3,468.6c-7.7,0.1-9.7,9.4-8.3,15.5c1.1,9.1-2.7,19.6,2.6,27.7c5.7,5.9,17-0.9,14.5-8.7
		c-0.8-10.1,2-21.2-1.7-31.1C345.8,469.9,343,468.5,340.3,468.6L340.3,468.6z"/>
	<path class="st8" d="M319.7,410.3h0.4c0.8,0,1.4,0.6,1.4,1.4v0.4c0,0.8-0.6,1.4-1.4,1.4h-0.4c-0.8,0-1.4-0.6-1.4-1.4v-0.4
		C318.3,411,318.9,410.3,319.7,410.3z"/>
	<path class="st8" d="M328.5,410.6h23.4c0.3,0,0.6,0.3,0.6,0.6v1.6c0,0.3-0.3,0.6-0.6,0.6h-23.4c-0.3,0-0.6-0.3-0.6-0.6v-1.6
		C327.9,410.9,328.1,410.6,328.5,410.6z"/>
	<path class="st9" d="M454.7,403.9h105c2.6,0,4.7,2.1,4.7,4.7V604c0,2.6-2.1,4.7-4.7,4.7h-105c-2.6,0-4.7-2.1-4.7-4.7V408.6
		C449.9,406,452.1,403.9,454.7,403.9z"/>
	<rect x="453.5" y="420.7" class="st10" width="107.7" height="173.4"/>
	<path class="st11" d="M493.5,408.7L493.5,408.7c2.1,0,3.7,1.6,3.7,3.7v0c0,2-1.6,3.7-3.7,3.7h-0.1c-2,0-3.7-1.6-3.7-3.7v0
		C489.9,410.3,491.5,408.7,493.5,408.7z"/>
	<path class="st11" d="M495.5,410.5h31.7c0.5,0,0.8,0.4,0.8,0.8v2.3c0,0.5-0.4,0.8-0.8,0.8h-31.7c-0.5,0-0.8-0.4-0.8-0.8v-2.3
		C494.7,410.9,495.1,410.5,495.5,410.5z"/>
	<path class="st5" d="M340.3,590.8c-4.2,0-7.6,3.4-7.6,7.6c0,0,0,0,0,0c0,4.2,3.4,7.6,7.6,7.6c0,0,0,0,0,0c4.2,0,7.6-3.4,7.6-7.6
		c0,0,0,0,0,0C347.9,594.2,344.5,590.8,340.3,590.8C340.3,590.8,340.3,590.8,340.3,590.8z M340.3,592.9c3,0,5.4,2.4,5.4,5.4
		c0,3-2.4,5.4-5.4,5.4c-3,0-5.4-2.4-5.4-5.4C334.9,595.4,337.3,592.9,340.3,592.9z"/>
	<path class="st3" d="M163.2,592.1c-1.1,0-1.9,1.1-1.9,2.4v7.5c0,1.3,0.9,2.4,1.9,2.4h25.1c1.1,0,1.9-1.1,1.9-2.4v-7.5
		c0-1.3-0.9-2.4-1.9-2.4H163.2z M164,594.1l23.4,0.1c0.8,0,1.4,0.4,1.4,1.3v5.4c0,0.9-0.6,1.3-1.4,1.3l-23.4,0.1
		c-0.8,0-1.4-0.5-1.4-1.4v-5.4C162.6,594.5,163.3,594.1,164,594.1L164,594.1z"/>
	<path class="st3" d="M197.1,410.6h0.7c0.9,0,1.6,0.7,1.6,1.6v0.7c0,0.9-0.7,1.6-1.6,1.6h-0.7c-0.9,0-1.6-0.7-1.6-1.6v-0.7
		C195.5,411.3,196.3,410.6,197.1,410.6z"/>
	<polygon class="st12" points="648.3,542.8 649.2,542.8 649.2,542.8 	"/>
	<path class="st13" d="M3.5,489c1-0.6,1.4-0.2,2,0L4,494.1c0,0-1.3-2-1.2-2.4C2.9,491.2,3.5,489,3.5,489L3.5,489z"/>
	<path class="st13" d="M24.7,489c-1.2-0.5-1.6-0.2-2,0l1.5,5.1c0,0,1.3-2,1.2-2.4C25.3,491.2,24.7,489,24.7,489L24.7,489z"/>
	<path class="st14" d="M4.7,484.5l-0.8,15.4l12.5,15.7l13.4-16.7l-5,0.2l-1.6-14.7l-8.6,7.5L4.7,484.5z"/>
	<path class="st15" d="M23.3,485.4l0.1,3c-1,2.4-2.4,4.4-4,6.2c-1.3,1.4-3.3,2.9-5.3,2.9c-2.1,0-3.6-1.7-5.5-2.8c-1.8-2-3-4.3-4-6.7
		l0.4-2.8c0,0,2.9,3.1,2.9,3.4s1.2,1.5,1.9,2.3c0.7,0.9-0.3,1.2,1.7,1.5c2,0.3,2.9,0.6,3.7,0.5c0.8-0.1,0.2,0.4,1.1-0.4
		c0.8-0.9,0.2-0.1,0.9-1c0.7-0.9,0.3-0.7,1.2-1.3c1-0.6,1.4-1,2-1.5c0.6-0.6,0.2,0,0.9-0.9c0.7-1,0.2-0.6,0.7-1
		c0.5-0.3,0.8-0.6,0.8-0.6L23.3,485.4z"/>
	<path class="st16" d="M25.6,460.5l0.4,8.4c0.4-1.2,1.6-1.1,2.2-0.6c0.2,0.5,0.1,1.9-0.1,3.6c-0.1,1.3-0.2,2.8-0.7,3.8
		c-0.6,1.5-1.6,2.1-2.4,2.8c-0.1,3.3-0.9,4.7-1.2,7c-1,2.6-3.1,4.9-5.7,7.6c-0.9,0.7-2.1,1.1-3.7,1.4c-1.7-0.1-3.2-0.5-4.5-1.4
		c-2.4-2-3.8-4.4-5.5-6.8c-0.8-2.6-2-4.4-2.5-7.2c-1.5-0.5-2.1-1.8-2.9-3.2c-0.8-2.1-0.5-3.9-0.4-6.1c0.5-0.7,0.9-1,1.5,0l-0.6-2.8
		c-0.6-3.1-0.8-6,2.3-7.3l8.2-3.5l12.3-0.4C23.9,457,25.7,458,25.6,460.5L25.6,460.5z"/>
	<path class="st17" d="M26.8,467.8l0.5-3.2c0.6-2.5,1-4.9,0.2-6.6c-0.3-2.3-0.1-4.7-3.1-6.5c-3.5-3.7-9.1-6.2-14.4-6.4l1.7,2.3
		c-3.3-2-8,0-13.1,2.3l3.2,0.9c-3.8,0.7-5.2,4.5-7.4,7l2.2,0.1c-1,2.4,0.2,5,0.8,6.8l0.4-1.6c0.2,2.1,1.4,3.5,1.8,6.2l0.5,0.8
		l0.7-1.6c-0.2-1.8-0.4-2.4-0.5-3.6c0.5-1.5,1.2-2.7,1.9-3.1c4.5,1.2,9.3,0.8,14.1-0.4c1.8-1.4,4-1.6,5.8-1.9
		c1.2,1.2,1.7,1.8,2.1,3.1c0.4,1.4,0.3,2.8,0.8,4.2l1.2,2.3L26.8,467.8z"/>
	<path class="st14" d="M25.5,475.6c0.7-1.3,1.2-2.1,1.5-2.1c0.3,0.1,0.8-4.1,0.5-3.8c0-0.7-0.4-1-0.5-0.5c-0.2,1.4-0.9,2.1-0.9,2.1
		C26.4,472.9,25.8,474.3,25.5,475.6L25.5,475.6z"/>
	<path class="st18" d="M26.6,491.8l-0.9,4.7l-4.9,5.9l-0.6,3.1l-5,4.6l0.1,6.2h39.3c-1.3-6.6-2.8-12.1-5.4-14.1l-5.4-2.7l-2.2-0.3
		l-4.2-2.6l-6.4-1.9L26.6,491.8L26.6,491.8z"/>
	<path class="st18" d="M2.1,491.6l-3.3,2.9c-1.5,0.3-3.5,0.8-6.4,1.9l-4.1,2.7l-2.4-0.3l-5.3,3.2c-2.9,3.4-4.5,8.5-5.7,14.1h40.5
		l-0.3-6.1l-4.5-3.2l0-1.9l-6.2-6.3L2.1,491.6L2.1,491.6z"/>
	<path class="st19" d="M24.7,489c-0.4,5.4-2,9.9-5.3,13.3v3.2l-4.5,4.7l5.4-4.1c0.6-1.1,0.5-1.2,0.8-3.4c1-1.2,1.9-1,3.2-0.8
		l3.3,6.2c0.2-4.5,0.7-11-1.1-16.2L24.7,489z"/>
	<path class="st19" d="M15.2,509.8l0.6,6.2l-1.1,0l-0.2-6.2L15.2,509.8z"/>
	<path class="st19" d="M3.5,489c0.4,5.4,4.4,11.2,7.8,14.6l-0.2,2.9l4,3.7L9.8,507c-0.6-1.1-0.5-2.1-0.5-2.8c-1-1.2-2.3-1.5-3.6-1.3
		c-1.3,2.5-2.8,4.7-3.8,6.6C1.6,505-0.1,497,1.7,491.8L3.5,489z"/>
	<path class="st20" d="M22.2,459.2c0.6-0.7,3.3,5.7,2.5,5.9c0.3-3-1.2-7.8-3-8c-6.9-2.9-14.6-0.5-22.2,1.6c0.6,0.9,1.6,0.3,2.5,0.5
		l-3.1,3.8l3.2-1.6c4.4,1.4,9.3,1.1,14.5-0.2C17.9,460.5,19.4,459.8,22.2,459.2L22.2,459.2z"/>
	<path class="st21" d="M15.1,470.9c0.3-0.6,0.2-1.3,1.3-1.6c0.9-0.5,1.4-0.4,1.8-0.3c2.7-0.8,4.4,0.3,6.1,0.9c-2-0.2-5.2-0.9-7,0.8
		l0.2-0.4l-0.6,0.4l0-0.2l-0.5,0.3l-0.1-0.1l-0.1,0.2l-0.2,0l-0.2,0l0-0.1l-0.2,0.2C15.4,471,15.3,471.2,15.1,470.9L15.1,470.9z"/>
	<path class="st6" d="M16.6,475.1c1.2-2.7,3.2-2.8,5.7-1.1C21,474.5,19.7,475.5,16.6,475.1z"/>
	<path class="st21" d="M18.1,473.5c0.1,0.5,0.3,1.1,0.7,1.6c0.8,0.2,1.3-0.2,1.9-0.4c0.1-0.4,0.1-0.8,0.1-1.4
		C19.8,473,19,472.6,18.1,473.5L18.1,473.5z"/>
	<path class="st22" d="M16.9,473.6c1.6-1.7,3.5-1.3,5.4-0.8"/>
	
		<ellipse transform="matrix(0.9992 -4.042311e-02 4.042311e-02 0.9992 -19.1202 1.195)" class="st6" cx="20" cy="473.4" rx="0.4" ry="0.3"/>
	<path class="st21" d="M10.9,471c-0.3-0.6-0.4-1.3-1.5-1.5c-1-0.4-1.4-0.2-1.9-0.1c-2.8-0.5-4.4,0.7-6,1.5c2-0.4,5.1-1.4,7.1,0.1
		l-0.2-0.4L9,471l0-0.2l0.5,0.2l0-0.1l0.1,0.2l0.2,0l0.2,0l0-0.1l0.3,0.2C10.5,471.1,10.7,471.3,10.9,471L10.9,471z"/>
	<path class="st6" d="M9.9,475.4c-1.5-2.6-3.4-2.6-5.8-0.6C5.5,475.1,7,476,9.9,475.4z"/>
	<path class="st21" d="M8.4,473.8c0,0.5-0.2,1.1-0.5,1.6c-0.8,0.2-1.3-0.1-1.9-0.3c-0.1-0.4-0.2-0.8-0.2-1.4
		C6.6,473.5,7.4,473.1,8.4,473.8L8.4,473.8z"/>
	<path class="st22" d="M9.6,473.9c-1.7-1.5-3.6-1-5.5-0.3"/>
	
		<ellipse transform="matrix(0.9992 -4.042311e-02 4.042311e-02 0.9992 -19.1543 0.7033)" class="st6" cx="7.8" cy="474" rx="0.4" ry="0.3"/>
	<path class="st21" d="M16.6,475.1c1.4-3.2,3.7-2.4,5.9-1.1C20.2,472.8,17.8,472.9,16.6,475.1z"/>
	<path class="st21" d="M9.9,475.3c-1.7-3.1-3.9-2.1-6-0.6C6.2,473.4,8.6,473.3,9.9,475.3z"/>
	<path class="st15" d="M10.6,486.8c0.9-0.3,1.5-0.3,2.5-0.3l0.9,0.1l0.8-0.2c0.9-0.1,2.2-0.1,3.3,0.1c-1.2,0.5-1.7,1.6-2.6,1.8
		c-1.4,0.3-1.6,0.3-2.8,0.2C12,488.1,11.3,487.1,10.6,486.8L10.6,486.8z"/>
	<path class="st6" d="M11.6,487l1.8-0.1l0.7,0.2l0.7-0.3l2.1-0.1C15,487.3,13.3,487.6,11.6,487L11.6,487z"/>
	<path class="st23" d="M14.1,482.7l0.2,2.1l-2.2-0.2L14.1,482.7z"/>
	<path image-rendering="auto" color-rendering="auto" shape-rendering="auto" class="st24" d="M-4.7,464.8l0,1v8.3l1.9,0v-7.3h7.3
		v-1.9h-8.3L-4.7,464.8z"/>
	<path image-rendering="auto" color-rendering="auto" shape-rendering="auto" class="st24" d="M20.8,466.7h8.4v-0.5h0.5v-1.4h-8.9
		L20.8,466.7z"/>
	<path image-rendering="auto" color-rendering="auto" shape-rendering="auto" class="st24" d="M27.8,474.2h1.9v-9.3h-1.9V474.2z"/>
	<path image-rendering="auto" color-rendering="auto" shape-rendering="auto" class="st24" d="M-4.7,494.7v-0.5h8.5l0-1.9h-6.6v-6.7
		l-1.9-0.1L-4.7,494.7L-4.7,494.7z"/>
	<path image-rendering="auto" color-rendering="auto" shape-rendering="auto" class="st24" d="M27.8,492.3H21v1.9h8.8v-8.7h-1.9
		L27.8,492.3z"/>
	<rect x="-11.6" y="523.7" class="st25" width="54.3" height="3.8"/>
	<rect x="-11.6" y="523.7" class="st26" width="37.5" height="3.8"/>
	<rect x="24.7" y="522.2" class="st26" width="1.2" height="6.9"/>
	<circle class="st6" cx="144" cy="461.5" r="5.2"/>
	<circle class="st6" cx="176" cy="461.5" r="5.2"/>
	<circle class="st6" cx="209" cy="461.5" r="5.2"/>
	<circle class="st6" cx="144" cy="492.9" r="5.2"/>
	<circle class="st6" cx="176" cy="492.9" r="5.2"/>
	<circle class="st6" cx="209" cy="492.9" r="5.2"/>
	<circle class="st6" cx="144" cy="525.1" r="5.2"/>
	<circle class="st6" cx="176" cy="525.1" r="5.2"/>
	<circle class="st6" cx="209" cy="525.1" r="5.2"/>
	<path class="st6" d="M156,574.9h37.8c0.7,0,1.2,0.5,1.2,1.2v2.6c0,0.7-0.5,1.2-1.2,1.2H156c-0.7,0-1.2-0.5-1.2-1.2v-2.6
		C154.8,575.4,155.3,574.9,156,574.9z"/>
	<path class="st6" d="M-3.2,582.5H35c0.6,0,1,0.5,1,1v2.2c0,0.6-0.5,1-1,1H-3.2c-0.6,0-1-0.5-1-1v-2.2
		C-4.2,582.9-3.7,582.5-3.2,582.5z"/>
	<g transform="translate(-62.857 265)">
		<path class="st6" d="M537.4,193.9c-5.8,0-10.5,4.7-10.5,10.5c0,0,0,0,0,0c0,5.8,4.7,10.5,10.5,10.5c0,0,0,0,0,0
			c5.8,0,10.5-4.7,10.5-10.5c0,0,0,0,0,0C547.9,198.6,543.2,193.9,537.4,193.9C537.4,193.9,537.4,193.9,537.4,193.9L537.4,193.9z
			 M537.4,195.6c4.8,0,8.8,3.9,8.8,8.8c0,4.8-3.9,8.8-8.8,8.8c-4.8,0-8.8-3.9-8.8-8.8c0,0,0,0,0,0
			C528.7,199.5,532.6,195.6,537.4,195.6L537.4,195.6z"/>
		<path class="st6" d="M604.1,193.9c-5.8,0-10.5,4.7-10.5,10.5c0,0,0,0,0,0c0,5.8,4.7,10.5,10.5,10.5c0,0,0,0,0,0
			c5.8,0,10.5-4.7,10.5-10.5c0,0,0,0,0,0C614.6,198.6,609.9,193.9,604.1,193.9C604.1,193.9,604.1,193.9,604.1,193.9L604.1,193.9z
			 M604.1,195.6c4.8,0,8.8,3.9,8.8,8.8c0,4.8-3.9,8.8-8.8,8.8c-4.8,0-8.8-3.9-8.8-8.8c0,0,0,0,0,0
			C595.3,199.5,599.3,195.6,604.1,195.6L604.1,195.6z"/>
		<path class="st6" d="M571.3,193.9c-5.8,0-10.5,4.7-10.5,10.5c0,0,0,0,0,0c0,5.8,4.7,10.5,10.5,10.5c0,0,0,0,0,0
			c5.8,0,10.5-4.7,10.5-10.5c0,0,0,0,0,0C581.8,198.6,577.1,193.9,571.3,193.9C571.3,193.9,571.3,193.9,571.3,193.9L571.3,193.9z
			 M571.3,195.6c4.8,0,8.8,3.9,8.8,8.8c0,4.8-3.9,8.8-8.8,8.8c-4.8,0-8.8-3.9-8.8-8.8c0,0,0,0,0,0
			C562.5,199.5,566.4,195.6,571.3,195.6L571.3,195.6z"/>
		<text transform="matrix(1 0 0 1 566.9195 209.6088)" class="st27 st28 st29">2</text>
		<text transform="matrix(1 0 0 1 534.4683 209.6088)" class="st27 st28 st29">1</text>
		<text transform="matrix(1 0 0 1 600.5191 209.6088)" class="st27 st28 st29">3</text>
		<path class="st6" d="M537.4,225.1c-5.8,0-10.5,4.7-10.5,10.5c0,0,0,0,0,0c0,5.8,4.7,10.5,10.5,10.5c0,0,0,0,0,0
			c5.8,0,10.5-4.7,10.5-10.5c0,0,0,0,0,0C547.9,229.8,543.2,225.1,537.4,225.1C537.4,225.1,537.4,225.1,537.4,225.1z M537.4,226.8
			c4.8,0,8.8,3.9,8.8,8.8c0,4.8-3.9,8.8-8.8,8.8c-4.8,0-8.8-3.9-8.8-8.8c0,0,0,0,0,0C528.7,230.7,532.6,226.8,537.4,226.8
			L537.4,226.8z"/>
		<path class="st6" d="M604.1,225.1c-5.8,0-10.5,4.7-10.5,10.5c0,0,0,0,0,0c0,5.8,4.7,10.5,10.5,10.5c0,0,0,0,0,0
			c5.8,0,10.5-4.7,10.5-10.5c0,0,0,0,0,0C614.6,229.8,609.9,225.1,604.1,225.1C604.1,225.1,604.1,225.1,604.1,225.1z M604.1,226.8
			c4.8,0,8.8,3.9,8.8,8.8c0,4.8-3.9,8.8-8.8,8.8c-4.8,0-8.8-3.9-8.8-8.8c0,0,0,0,0,0C595.3,230.7,599.3,226.8,604.1,226.8
			L604.1,226.8z"/>
		<path class="st6" d="M571.3,225.1c-5.8,0-10.5,4.7-10.5,10.5c0,0,0,0,0,0c0,5.8,4.7,10.5,10.5,10.5c0,0,0,0,0,0
			c5.8,0,10.5-4.7,10.5-10.5c0,0,0,0,0,0C581.8,229.8,577.1,225.1,571.3,225.1C571.3,225.1,571.3,225.1,571.3,225.1z M571.3,226.8
			c4.8,0,8.8,3.9,8.8,8.8c0,4.8-3.9,8.8-8.8,8.8c-4.8,0-8.8-3.9-8.8-8.8c0,0,0,0,0,0C562.5,230.7,566.4,226.8,571.3,226.8
			L571.3,226.8z"/>
		<text transform="matrix(1 0 0 1 566.9195 240.809)" class="st27 st28 st29">5</text>
		<text transform="matrix(1 0 0 1 532.8687 240.809)" class="st27 st28 st29">4</text>
		<text transform="matrix(1 0 0 1 599.2447 240.809)" class="st27 st28 st29">6</text>
		<path class="st6" d="M537.4,257.1c-5.8,0-10.5,4.7-10.5,10.5c0,0,0,0,0,0c0,5.8,4.7,10.5,10.5,10.5c0,0,0,0,0,0
			c5.8,0,10.5-4.7,10.5-10.5c0,0,0,0,0,0C547.9,261.8,543.2,257.1,537.4,257.1C537.4,257.1,537.4,257.1,537.4,257.1z M537.4,258.8
			c4.8,0,8.8,3.9,8.8,8.8c0,4.8-3.9,8.8-8.8,8.8c-4.8,0-8.8-3.9-8.8-8.8c0,0,0,0,0,0C528.7,262.7,532.6,258.8,537.4,258.8
			L537.4,258.8z"/>
		<path class="st6" d="M604.1,257.1c-5.8,0-10.5,4.7-10.5,10.5c0,0,0,0,0,0c0,5.8,4.7,10.5,10.5,10.5c0,0,0,0,0,0
			c5.8,0,10.5-4.7,10.5-10.5c0,0,0,0,0,0C614.6,261.8,609.9,257.1,604.1,257.1C604.1,257.1,604.1,257.1,604.1,257.1z M604.1,258.8
			c4.8,0,8.8,3.9,8.8,8.8c0,4.8-3.9,8.8-8.8,8.8c-4.8,0-8.8-3.9-8.8-8.8c0,0,0,0,0,0C595.3,262.7,599.3,258.8,604.1,258.8
			L604.1,258.8z"/>
		<path class="st6" d="M571.3,257.1c-5.8,0-10.5,4.7-10.5,10.5c0,0,0,0,0,0c0,5.8,4.7,10.5,10.5,10.5c0,0,0,0,0,0
			c5.8,0,10.5-4.7,10.5-10.5c0,0,0,0,0,0C581.8,261.8,577.1,257.1,571.3,257.1C571.3,257.1,571.3,257.1,571.3,257.1z M571.3,258.8
			c4.8,0,8.8,3.9,8.8,8.8c0,4.8-3.9,8.8-8.8,8.8c-4.8,0-8.8-3.9-8.8-8.8c0,0,0,0,0,0C562.5,262.7,566.4,258.8,571.3,258.8
			L571.3,258.8z"/>
		<text transform="matrix(1 0 0 1 566.9195 272.8095)" class="st27 st28 st29">8</text>
		<text transform="matrix(1 0 0 1 532.8687 273.2094)" class="st27 st28 st29">7</text>
		<text transform="matrix(1 0 0 1 599.7398 272.8095)" class="st27 st28 st29">9</text>
		<path class="st6" d="M571.3,287.1c-5.8,0-10.5,4.7-10.5,10.5c0,0,0,0,0,0c0,5.8,4.7,10.5,10.5,10.5c0,0,0,0,0,0
			c5.8,0,10.5-4.7,10.5-10.5c0,0,0,0,0,0C581.8,291.8,577.1,287.1,571.3,287.1C571.3,287.1,571.3,287.1,571.3,287.1z M571.3,288.8
			c4.8,0,8.8,3.9,8.8,8.8c0,4.8-3.9,8.8-8.8,8.8s-8.8-3.9-8.8-8.8c0,0,0,0,0,0C562.5,292.7,566.4,288.8,571.3,288.8L571.3,288.8z"/>
		<text transform="matrix(1 0 0 1 566.9195 302.8095)" class="st27 st28 st29">0</text>
	</g>
	<path class="st7" d="M340.3,470.5c-6.7,0.2-7.4,8.3-6.5,13.4c0.9,8.5-1.9,17.8,1.4,25.9c4.2,5.7,14.1,0.4,12-6.3
		c-0.6-9.9,1.4-20.3-1-29.9C344.9,471.6,342.6,470.4,340.3,470.5L340.3,470.5z"/>
	<path class="st6" d="M340.5,472.3c-5.7,0.2-5.2,7.5-4.8,11.4c0.6,7.9-1,16.3,0.5,24c2.3,4.9,10.3,2.1,9.2-3.2
		c-0.4-9.7,0.7-19.7-0.4-29.3C344.2,473.5,342.4,472.3,340.5,472.3L340.5,472.3z"/>
	<path class="st7" d="M340.5,474.2L340.5,474.2c1.7,0,3,1.3,3,3v28.3c0,1.7-1.3,3-3,3l0,0c-1.7,0-3-1.3-3-3v-28.3
		C337.5,475.5,338.8,474.2,340.5,474.2z"/>
	<circle class="st6" cx="333.8" cy="470.7" r="1.1"/>
	<circle class="st6" cx="326.8" cy="477.7" r="1.1"/>
	<circle class="st6" cx="331.1" cy="488.8" r="1.1"/>
	<circle class="st6" cx="327.1" cy="498.9" r="1.1"/>
	<circle class="st6" cx="332.7" cy="510.5" r="1.1"/>
	<circle class="st6" cx="348.2" cy="511.2" r="1.1"/>
	<circle class="st6" cx="353.7" cy="500.5" r="1.1"/>
	<circle class="st6" cx="350.2" cy="489.5" r="1.1"/>
	<circle class="st6" cx="352.6" cy="473.9" r="1.1"/>
	<path class="st6" d="M344.9,467.6c0.6,0,1.1,0.5,1.1,1.1c0,0.6-0.5,1.1-1.1,1.1s-1.1-0.5-1.1-1.1
		C343.8,468.2,344.3,467.6,344.9,467.6z"/>
	<circle class="st6" cx="337.9" cy="464.3" r="1.1"/>
</g>
</svg>
